<?xml version="1.0" encoding="UTF-8"?>
<svg width="662.23" height="663.5" version="1.1" viewBox="0 0 175.22 175.55" xmlns="http://www.w3.org/2000/svg" xmlns:cc="http://creativecommons.org/ns#" xmlns:dc="http://purl.org/dc/elements/1.1/" xmlns:rdf="http://www.w3.org/1999/02/22-rdf-syntax-ns#" xmlns:xlink="http://www.w3.org/1999/xlink">
  <defs>
    <filter id="b" x="-.057343" y="-.057087" width="1.1147" height="1.1142" color-interpolation-filters="sRGB">
      <feGaussianBlur stdDeviation="3.5306992"/>
    </filter>
    <linearGradient id="a" x1="85.915" x2="86.535" y1="32.567" y2="137.09" gradientTransform="translate(-4.0156e-7)" gradientUnits="userSpaceOnUse">
      <stop stop-color="#57d163" offset="0"/>
      <stop stop-color="#23b33a" offset="1"/>
    </linearGradient>
  </defs>
  <path d="m54.532 138.45 2.2352 1.3243c9.3872 5.5714 20.15 8.5177 31.126 8.5232h0.0234c33.707 0 61.139-27.426 61.153-61.135 6e-3 -16.335-6.3486-31.696-17.895-43.251-11.547-11.555-26.899-17.921-43.235-17.928-33.733 0-61.166 27.423-61.178 61.13-5e-3 11.551 3.2274 22.801 9.3486 32.535l1.4552 2.3124-6.1791 22.558zm-40.811 23.544 10.439-38.114c-6.4382-11.154-9.8254-23.808-9.8213-36.772 0.0165-40.556 33.021-73.55 73.578-73.55 19.681 0.0096 38.154 7.6688 52.047 21.572 13.889 13.903 21.537 32.383 21.53 52.037-0.0179 40.553-33.027 73.553-73.578 73.553-3e-3 0 3e-3 0 0 0h-0.0317c-12.313-5e-3 -24.412-3.0937-35.159-8.9545z" fill="#b3b3b3" filter="url(#b)"/>
  <path d="m12.966 161.24 10.439-38.114c-6.4382-11.154-9.8254-23.808-9.8213-36.772 0.0165-40.556 33.021-73.55 73.578-73.55 19.681 0.0096 38.154 7.6688 52.047 21.572 13.889 13.903 21.537 32.383 21.53 52.037-0.0179 40.553-33.027 73.553-73.578 73.553-3e-3 0 3e-3 0 0 0h-0.0317c-12.313-5e-3 -24.412-3.0937-35.159-8.9545z" fill="#fff"/>
  <path d="m87.184 25.227c-33.733 0-61.166 27.423-61.178 61.13-5e-3 11.551 3.2275 22.801 9.3488 32.535l1.4552 2.312-6.1795 22.559 23.146-6.0689 2.235 1.324c9.3872 5.5714 20.15 8.518 31.126 8.5235h0.0233c33.707 0 61.14-27.426 61.153-61.135 6e-3 -16.335-6.3484-31.696-17.895-43.251-11.547-11.555-26.899-17.922-43.235-17.929z" fill="url(#linearGradient1780)" stroke-width=".35278"/>
  <metadata>
    <rdf:RDF>
      <cc:Work rdf:about="">
        <dc:title/>
        <dc:format>image/svg+xml</dc:format>
        <dc:type rdf:resource="http://purl.org/dc/dcmitype/StillImage"/>
      </cc:Work>
    </rdf:RDF>
  </metadata>
  <path d="m87.184 25.227c-33.733 0-61.166 27.423-61.178 61.13-5e-3 11.551 3.2275 22.801 9.3488 32.535l1.4552 2.3125-6.1795 22.558 23.146-6.0689 2.235 1.3245c9.3872 5.5714 20.15 8.5175 31.126 8.523h0.02326c33.707 0 61.14-27.426 61.153-61.135 6e-3 -16.335-6.3484-31.696-17.895-43.251-11.547-11.555-26.899-17.921-43.235-17.928z" fill="url(#a)" stop-color="#000000" stroke-linecap="round" stroke-linejoin="round" stroke-width=".51493"/>
  <path d="m68.772 55.603c-1.378-3.0606-2.8277-3.1226-4.1369-3.1764-1.0721-0.04548-2.2986-0.04272-3.5236-0.04272-1.2264 0-3.2177 0.46026-4.9017 2.2999-1.6853 1.8397-6.4354 6.2866-6.4354 15.332 0 9.0454 6.5884 17.785 7.5062 19.013 0.91916 1.2265 12.718 20.381 31.405 27.75 15.529 6.124 18.689 4.9058 22.061 4.5999 3.3707-0.30592 10.877-4.4469 12.408-8.7395 1.5324-4.2926 1.5324-7.9706 1.0735-8.7395-0.46026-0.76757-1.6853-1.2264-3.525-2.1456-1.8383-0.91915-10.877-5.3675-12.562-5.9807-1.6853-0.61322-2.9104-0.91915-4.1369 0.92053-1.2251 1.8397-4.746 5.9793-5.8195 7.2058-1.0721 1.2278-2.1442 1.3808-3.9839 0.46164-1.8383-0.92191-7.7597-2.8608-14.784-9.124-5.4653-4.8727-9.1543-10.891-10.228-12.73-1.0721-1.8397-0.11438-2.8346 0.80753-3.751 0.82544-0.82407 1.8383-2.147 2.7588-3.2205 0.9164-1.0735 1.2237-1.8397 1.8356-3.0648 0.61323-1.2278 0.3073-2.3013-0.15296-3.2205-0.45889-0.91915-4.0321-10.011-5.6665-13.647" fill="#fff" fill-rule="evenodd"/>
</svg>
